<svg width="354" height="272" viewBox="0 0 354 272" fill="none" xmlns="http://www.w3.org/2000/svg">
<path d="M306.832 91.2204C326.499 91.2204 342.442 75.2771 342.442 55.6102C342.442 35.9432 326.499 20 306.832 20C287.165 20 271.222 35.9432 271.222 55.6102C271.222 75.2771 287.165 91.2204 306.832 91.2204Z" fill="#F0F0F0"/>
<path d="M324.137 71.0441C321.331 69.5654 318.402 68.3327 315.383 67.36L314.998 63.1014L299.385 61.4194L297.401 66.8626L291.798 68.9652C291.597 69.0412 291.406 69.1406 291.229 69.2613H291.223C290.306 69.339 289.422 69.6444 288.653 70.1498C288.131 70.4829 287.667 70.899 287.279 71.3817C288.037 71.9563 288.824 72.4893 289.636 72.9987L289.672 73.0164C289.903 73.1586 290.14 73.3008 290.376 73.437C290.803 73.6916 291.241 73.9345 291.679 74.1655L291.958 74.3077C292.597 74.6393 293.249 74.9532 293.918 75.2434C294.054 75.3027 294.203 75.3619 294.339 75.4212C294.351 75.4271 294.357 75.4271 294.368 75.433C294.682 75.5633 294.996 75.6877 295.316 75.8061C296.367 76.2074 297.438 76.5514 298.526 76.8367C301.303 77.5767 304.164 77.9511 307.037 77.9503C308.086 77.9503 309.122 77.9028 310.147 77.8022C312.488 77.5861 314.8 77.1195 317.041 76.4103C317.047 76.4103 317.053 76.4044 317.059 76.4044C318.475 75.9533 319.859 75.4051 321.199 74.7637C321.205 74.7578 321.217 74.7578 321.223 74.7519C321.525 74.6097 321.815 74.4558 322.111 74.3077L322.253 74.2365C322.491 74.1122 322.728 73.9878 322.965 73.8575C323.557 73.5318 324.137 73.1883 324.711 72.821C324.871 72.7262 325.025 72.6256 325.185 72.5189C325.41 72.3709 325.635 72.2169 325.855 72.0569C325.304 71.7015 324.729 71.3639 324.137 71.0441Z" fill="#ED3D32"/>
<path d="M306.58 58.727C312.79 58.727 317.824 53.6927 317.824 47.4826C317.824 41.2724 312.79 36.2381 306.58 36.2381C300.37 36.2381 295.335 41.2724 295.335 47.4826C295.335 53.6927 300.37 58.727 306.58 58.727Z" fill="#A0616A"/>
<path d="M299.029 42.0056C300.193 43.3831 302.163 43.7718 303.98 43.9312C307.671 44.2548 313.037 43.7298 316.644 42.8971C316.901 45.392 316.199 48.082 317.669 50.1342C318.357 47.6497 318.758 45.0941 318.862 42.5179C318.972 41.4126 318.828 40.2969 318.44 39.2559C318.233 38.7342 317.884 38.281 317.432 37.9479C316.98 37.6148 316.444 37.4152 315.885 37.3716C316.722 36.7361 317.704 36.3166 318.742 36.1501L315.172 34.3559L316.088 33.4146L309.624 33.019L311.497 31.8296C308.679 31.4424 305.828 31.3525 302.992 31.5611C301.674 31.6582 300.297 31.8436 299.23 32.6068C298.163 33.37 297.546 34.8869 298.208 36.0074C297.379 36.1436 296.598 36.4893 295.939 37.0118C295.281 37.5343 294.767 38.2162 294.446 38.9931C294.039 40.2278 293.941 41.5431 294.16 42.8245C294.403 44.8803 294.881 46.9015 295.584 48.8488L299.029 42.0056Z" fill="#2F2E41"/>
<path d="M217.872 181.413C237.539 181.413 253.482 165.47 253.482 145.803C253.482 126.136 237.539 110.193 217.872 110.193C198.205 110.193 182.262 126.136 182.262 145.803C182.262 165.47 198.205 181.413 217.872 181.413Z" fill="#F0F0F0"/>
<path d="M231.413 162.089L225.486 161.55L221.94 158.96C221.94 158.955 221.938 158.95 221.935 158.946L221.926 158.951L221.784 158.846L221.766 159.01L215.78 161.312L209.63 159.893L207.502 162.195L198.025 165.339C197.569 165.643 197.168 166.022 196.839 166.46L196.84 166.466C197.238 166.778 197.647 167.085 198.061 167.376C199 168.054 199.977 168.681 200.985 169.252C203.439 170.651 206.063 171.73 208.792 172.46C209.039 172.528 209.287 172.592 209.534 172.652C209.964 172.757 210.398 172.858 210.833 172.94C211.712 173.123 212.601 173.267 213.501 173.37C214.824 173.531 216.155 173.61 217.487 173.608C218.398 173.608 219.299 173.573 220.192 173.503C221.759 173.377 223.316 173.14 224.85 172.794C224.905 172.78 224.96 172.771 225.015 172.753C227.365 172.214 229.648 171.419 231.824 170.382C232.158 170.222 232.492 170.057 232.822 169.888C233.632 169.471 234.419 169.023 235.183 168.542C235.76 168.186 236.323 167.806 236.872 167.412C237.211 167.17 237.545 166.923 237.874 166.666L237.838 166.59C237.253 165.345 236.353 164.274 235.225 163.484C234.098 162.694 232.784 162.213 231.413 162.089Z" fill="#ED3D32"/>
<path d="M225.751 132.509C225.06 131.824 224.28 131.235 223.431 130.757C218.192 127.865 212.467 127.814 207.726 130.615C206.547 131.309 205.471 132.164 204.527 133.155C201.867 135.931 200.377 139.624 200.367 143.469V154.873H230.195V142.303C230.195 138.934 228.342 135.036 225.751 132.509Z" fill="#2F2E41"/>
<path d="M214.69 154.562C220.639 154.562 225.463 149.739 225.463 143.789C225.463 137.84 220.639 133.017 214.69 133.017C208.74 133.017 203.917 137.84 203.917 143.789C203.917 149.739 208.74 154.562 214.69 154.562Z" fill="#FFB8B8"/>
<path d="M225.742 134.011C225.72 133.781 225.639 133.562 225.506 133.373C225.374 133.185 225.195 133.034 224.987 132.935C218.246 129.787 211.409 129.869 204.678 133.182H204.554L204.513 133.352C203.186 143.575 203.373 143.799 203.456 143.891C203.586 144.039 203.747 144.156 203.927 144.234C204.093 144.307 204.272 144.344 204.453 144.344H219.82L219.857 144.17C220.035 143.255 220.264 142.35 220.543 141.461C221.156 142.354 221.719 143.28 222.232 144.234L222.296 144.344H225.284C225.341 144.344 225.398 144.339 225.454 144.33C225.762 144.293 226.047 144.145 226.254 143.914C226.337 143.827 226.529 143.616 225.742 134.011Z" fill="#2F2E41"/>
<path d="M306.832 181.413C326.499 181.413 342.442 165.47 342.442 145.803C342.442 126.136 326.499 110.193 306.832 110.193C287.165 110.193 271.222 126.136 271.222 145.803C271.222 165.47 287.165 181.413 306.832 181.413Z" fill="#F0F0F0"/>
<path d="M314.886 160.706L314.498 156.398L298.682 154.694L296.68 160.207L291.002 162.334C290.796 162.41 290.6 162.511 290.418 162.633C289.284 162.736 288.207 163.174 287.323 163.891C287.452 163.998 287.581 164.1 287.711 164.203C287.738 164.23 287.769 164.252 287.796 164.274C288.157 164.555 288.527 164.832 288.902 165.095C289 165.166 289.098 165.238 289.201 165.304C290.023 165.887 290.874 166.427 291.752 166.923C292.59 167.401 293.451 167.841 294.334 168.244C295.956 168.985 297.637 169.589 299.36 170.05C299.601 170.117 299.842 170.179 300.083 170.237C300.502 170.34 300.926 170.438 301.349 170.518C302.206 170.697 303.072 170.836 303.95 170.937C305.239 171.094 306.536 171.171 307.834 171.169C308.722 171.169 309.601 171.135 310.47 171.067C311.998 170.944 313.515 170.713 315.01 170.375C315.064 170.362 315.118 170.353 315.171 170.335C317.461 169.81 319.687 169.036 321.807 168.025C322.133 167.869 322.459 167.708 322.78 167.543C323.569 167.138 324.336 166.7 325.081 166.232C325.349 166.067 325.612 165.898 325.875 165.719C321.83 162.999 315.956 161.05 314.886 160.706Z" fill="#ED3D32"/>
<path d="M305.972 151.966C312.262 151.966 317.361 146.867 317.361 140.577C317.361 134.287 312.262 129.189 305.972 129.189C299.682 129.189 294.583 134.287 294.583 140.577C294.583 146.867 299.682 151.966 305.972 151.966Z" fill="#A0616A"/>
<path d="M298.329 135.029C299.508 136.424 301.503 136.817 303.343 136.977C307.081 137.305 312.516 136.774 316.169 135.93C316.431 138.457 315.719 141.181 317.207 143.26C317.905 140.744 318.31 138.155 318.416 135.546C318.527 134.427 318.381 133.297 317.989 132.242C317.779 131.714 317.425 131.255 316.968 130.918C316.51 130.58 315.967 130.378 315.4 130.334C315.525 130.205 315.611 130.043 315.648 129.868C315.685 129.692 315.672 129.509 315.609 129.341C315.471 128.746 315.168 128.203 314.735 127.773C314.302 127.344 313.756 127.046 313.16 126.914L309.06 125.926C309.06 125.926 305.213 124.239 302.339 124.451C301.005 124.549 299.61 124.737 298.529 125.51C297.449 126.283 296.824 127.819 297.495 128.954C296.655 129.092 295.864 129.442 295.197 129.971C294.53 130.5 294.009 131.191 293.684 131.978C293.273 133.228 293.173 134.561 293.395 135.858C293.641 137.941 294.125 139.988 294.837 141.96L298.329 135.029Z" fill="#2F2E41"/>
<path d="M217.872 91.2204C237.539 91.2204 253.482 75.2771 253.482 55.6102C253.482 35.9432 237.539 20 217.872 20C198.205 20 182.262 35.9432 182.262 55.6102C182.262 75.2771 198.205 91.2204 217.872 91.2204Z" fill="#F0F0F0"/>
<path d="M219.848 36.3296C222.474 36.3296 224.602 34.201 224.602 31.5753C224.602 28.9496 222.474 26.821 219.848 26.821C217.222 26.821 215.094 28.9496 215.094 31.5753C215.094 34.201 217.222 36.3296 219.848 36.3296Z" fill="#2F2E41"/>
<path d="M215.724 34.0489C215.123 33.4871 214.678 32.7788 214.432 31.9934C214.187 31.208 214.15 30.3724 214.324 29.5681C214.498 28.7639 214.878 28.0187 215.426 27.4053C215.975 26.7919 216.673 26.3314 217.453 26.0687C216.8 26.1642 216.174 26.3947 215.615 26.7454C215.055 27.0962 214.575 27.5597 214.205 28.1062C213.835 28.6528 213.583 29.2705 213.464 29.9199C213.346 30.5694 213.364 31.2363 213.518 31.8783C213.671 32.5203 213.957 33.1233 214.357 33.6488C214.756 34.1743 215.261 34.6108 215.838 34.9305C216.416 35.2502 217.054 35.4461 217.711 35.5057C218.369 35.5653 219.031 35.4873 219.657 35.2767C218.951 35.381 218.231 35.3247 217.55 35.112C216.869 34.8994 216.245 34.5359 215.724 34.0486L215.724 34.0489Z" fill="#2F2E41"/>
<path d="M219.944 62.0393C227.657 62.0393 233.91 55.7864 233.91 48.073C233.91 40.3597 227.657 34.1068 219.944 34.1068C212.23 34.1068 205.978 40.3597 205.978 48.073C205.978 55.7864 212.23 62.0393 219.944 62.0393Z" fill="#2F2E41"/>
<path d="M207.519 40.3833C209.925 37.6768 213.289 36.0112 216.9 35.738C220.512 35.4647 224.088 36.6052 226.874 38.9187C226.76 38.8099 226.646 38.7006 226.529 38.5952C223.77 36.1237 220.142 34.8493 216.443 35.0525C212.745 35.2557 209.279 36.9198 206.807 39.6787C204.335 42.4376 203.061 46.0653 203.264 49.7639C203.467 53.4624 205.131 56.9287 207.89 59.4003C207.917 59.424 207.944 59.4476 207.97 59.4712C208.089 59.5766 208.21 59.6762 208.332 59.777C205.708 57.2808 204.156 53.8628 204.005 50.2444C203.853 46.626 205.113 43.0902 207.519 40.3833H207.519Z" fill="#2F2E41"/>
<path d="M219.826 61.9207C224.794 61.9207 228.821 57.8935 228.821 52.9257C228.821 47.9579 224.794 43.9307 219.826 43.9307C214.858 43.9307 210.831 47.9579 210.831 52.9257C210.831 57.8935 214.858 61.9207 219.826 61.9207Z" fill="#A0616A"/>
<path d="M235.923 76.3621V79.3802C235.37 79.7333 234.812 80.0636 234.243 80.3767C234.015 80.502 233.787 80.6216 233.559 80.7412L233.423 80.8095C233.138 80.9519 232.859 81.0999 232.568 81.2366C232.563 81.2423 232.551 81.2423 232.546 81.248C231.257 81.8646 229.927 82.3916 228.565 82.8254C228.559 82.8254 228.554 82.8311 228.548 82.8311C226.393 83.5129 224.171 83.9615 221.92 84.1692C220.934 84.2661 219.938 84.3116 218.93 84.3116C216.167 84.3124 213.417 83.9525 210.747 83.2411C209.385 82.883 208.05 82.4321 206.75 81.8914C206.738 81.8858 206.732 81.8858 206.721 81.8801C206.59 81.8231 206.448 81.7662 206.317 81.7092C205.673 81.4302 205.047 81.1284 204.432 80.8095L204.164 80.6729C203.509 80.3255 202.866 79.9611 202.234 79.5681L202.2 79.551C201.226 78.9446 200.287 78.2849 199.387 77.5751C198.925 77.222 198.481 76.8518 198.048 76.4646C197.821 76.271 197.593 76.066 197.377 75.8667C196.545 75.0983 195.756 74.2847 195.013 73.4295C195.112 72.8363 195.256 72.2518 195.446 71.6813L195.452 71.6756C195.486 71.5783 195.526 71.4832 195.571 71.3908C195.603 71.3091 195.639 71.2292 195.679 71.1517C196.699 69.244 198.544 68.7714 200.833 68.6689C202.126 68.6119 203.555 68.6746 205.064 68.6575C205.861 68.6518 206.687 68.6233 207.513 68.5493C212.723 68.0767 211.778 65.0016 212.011 63.3445C212.245 61.7387 213.691 63.1282 213.788 63.2193L213.794 63.225C216.742 64.6049 220.004 65.1767 223.246 64.8821C223.805 64.8137 224.363 64.7739 224.921 64.7568C226.39 64.7397 226.071 65.1611 225.564 65.5085C225.318 65.6703 225.061 65.8149 224.796 65.9413C224.796 65.9413 224.562 67.3649 224.323 69.4946C224.095 71.5332 231.276 72.2393 232.682 72.6835H232.688C233.491 72.9787 234.207 73.4699 234.772 74.1123C235.337 74.7547 235.732 75.5281 235.923 76.3621V76.3621Z" fill="#ED3D32"/>
<path d="M210.714 52.334C211.106 52.334 211.424 51.7512 211.424 51.0323C211.424 50.3133 211.106 49.7305 210.714 49.7305C210.321 49.7305 210.003 50.3133 210.003 51.0323C210.003 51.7512 210.321 52.334 210.714 52.334Z" fill="#A0616A"/>
<path d="M228.939 52.334C229.331 52.334 229.649 51.7512 229.649 51.0323C229.649 50.3133 229.331 49.7305 228.939 49.7305C228.546 49.7305 228.229 50.3133 228.229 51.0323C228.229 51.7512 228.546 52.334 228.939 52.334Z" fill="#A0616A"/>
<path d="M229.542 46.0423C229.197 44.9355 228.426 44.0109 227.4 43.4714C226.382 42.943 225.294 42.5606 224.169 42.3356C222.202 41.7697 220.164 41.4907 218.118 41.5074C216.077 41.6076 213.991 42.312 212.604 43.8129C211.218 45.3138 210.704 47.6967 211.714 49.4729L211.602 49.932C213.221 50.1246 214.861 49.8437 216.324 49.1233C217.786 48.4029 219.008 47.2739 219.843 45.8731C220.608 47.0819 221.695 48.0535 222.982 48.6788C224.269 49.304 225.705 49.5583 227.128 49.4129C227.582 49.3763 228.025 49.2491 228.429 49.0387C228.909 48.7221 229.275 48.2611 229.475 47.7224C229.675 47.1837 229.699 46.5952 229.542 46.0423V46.0423Z" fill="#2F2E41"/>
<path d="M306.832 271.606C326.499 271.606 342.442 255.663 342.442 235.996C342.442 216.329 326.499 200.386 306.832 200.386C287.165 200.386 271.222 216.329 271.222 235.996C271.222 255.663 287.165 271.606 306.832 271.606Z" fill="#F0F0F0"/>
<path d="M308.806 216.716C311.431 216.716 313.56 214.587 313.56 211.961C313.56 209.336 311.431 207.207 308.806 207.207C306.18 207.207 304.051 209.336 304.051 211.961C304.051 214.587 306.18 216.716 308.806 216.716Z" fill="#2F2E41"/>
<path d="M304.682 214.435C304.081 213.873 303.635 213.165 303.39 212.379C303.144 211.594 303.107 210.758 303.281 209.954C303.455 209.15 303.835 208.405 304.384 207.791C304.933 207.178 305.631 206.717 306.411 206.455C305.757 206.55 305.131 206.781 304.572 207.131C304.013 207.482 303.533 207.946 303.163 208.492C302.792 209.039 302.54 209.657 302.422 210.306C302.303 210.955 302.322 211.622 302.475 212.264C302.629 212.906 302.915 213.509 303.314 214.035C303.714 214.56 304.218 214.997 304.796 215.317C305.373 215.636 306.011 215.832 306.669 215.892C307.326 215.951 307.989 215.873 308.614 215.663C307.909 215.767 307.189 215.711 306.508 215.498C305.827 215.285 305.202 214.922 304.681 214.435L304.682 214.435Z" fill="#2F2E41"/>
<path d="M308.901 242.425C316.615 242.425 322.868 236.172 322.868 228.459C322.868 220.745 316.615 214.492 308.901 214.492C301.188 214.492 294.935 220.745 294.935 228.459C294.935 236.172 301.188 242.425 308.901 242.425Z" fill="#2F2E41"/>
<path d="M296.476 220.769C298.883 218.063 302.247 216.397 305.858 216.124C309.469 215.851 313.045 216.991 315.832 219.305C315.718 219.196 315.604 219.087 315.486 218.981C312.727 216.51 309.099 215.235 305.401 215.439C301.702 215.642 298.236 217.306 295.764 220.065C293.293 222.824 292.019 226.451 292.222 230.15C292.425 233.848 294.089 237.315 296.848 239.786C296.874 239.81 296.901 239.834 296.928 239.857C297.046 239.963 297.168 240.062 297.289 240.163C294.665 237.667 293.114 234.249 292.962 230.63C292.811 227.012 294.071 223.476 296.477 220.769H296.476Z" fill="#2F2E41"/>
<path d="M308.784 242.307C313.751 242.307 317.779 238.28 317.779 233.312C317.779 228.344 313.751 224.317 308.784 224.317C303.816 224.317 299.789 228.344 299.789 233.312C299.789 238.28 303.816 242.307 308.784 242.307Z" fill="#A0616A"/>
<path d="M324.88 256.748V259.766C324.328 260.119 323.769 260.45 323.2 260.763C322.972 260.888 322.745 261.008 322.517 261.127L322.38 261.196C322.095 261.338 321.816 261.486 321.526 261.623C321.52 261.628 321.509 261.628 321.503 261.634C320.214 262.251 318.884 262.778 317.523 263.211C317.517 263.211 317.511 263.217 317.506 263.217C315.35 263.899 313.128 264.348 310.877 264.555C309.892 264.652 308.895 264.698 307.888 264.698C305.125 264.698 302.374 264.339 299.705 263.627C298.343 263.269 297.007 262.818 295.707 262.277C295.696 262.272 295.69 262.272 295.679 262.266C295.548 262.209 295.405 262.152 295.274 262.095C294.631 261.816 294.004 261.514 293.389 261.196L293.122 261.059C292.467 260.712 291.823 260.347 291.191 259.954L291.157 259.937C290.184 259.331 289.245 258.671 288.344 257.961C287.883 257.608 287.439 257.238 287.006 256.851C286.778 256.657 286.55 256.452 286.334 256.253C285.502 255.484 284.713 254.671 283.971 253.816C284.069 253.222 284.214 252.638 284.404 252.067L284.409 252.062C284.443 251.964 284.483 251.869 284.529 251.777C284.56 251.695 284.596 251.615 284.637 251.538C285.656 249.63 287.501 249.157 289.791 249.055C291.083 248.998 292.512 249.061 294.022 249.044C294.819 249.038 295.644 249.009 296.47 248.935C301.681 248.463 300.735 245.388 300.969 243.731C301.202 242.125 302.649 243.514 302.746 243.605L302.751 243.611C305.7 244.991 308.962 245.563 312.204 245.268C312.762 245.2 313.32 245.16 313.878 245.143C315.347 245.126 315.028 245.547 314.522 245.895C314.276 246.056 314.019 246.201 313.753 246.327C313.753 246.327 313.519 247.751 313.28 249.881C313.053 251.919 320.233 252.625 321.64 253.07H321.646C322.448 253.365 323.165 253.856 323.73 254.498C324.295 255.141 324.69 255.914 324.88 256.748V256.748Z" fill="#ED3D32"/>
<path d="M299.671 232.72C300.063 232.72 300.381 232.137 300.381 231.418C300.381 230.699 300.063 230.117 299.671 230.117C299.279 230.117 298.961 230.699 298.961 231.418C298.961 232.137 299.279 232.72 299.671 232.72Z" fill="#A0616A"/>
<path d="M317.899 232.72C318.291 232.72 318.609 232.137 318.609 231.418C318.609 230.699 318.291 230.117 317.899 230.117C317.506 230.117 317.188 230.699 317.188 231.418C317.188 232.137 317.506 232.72 317.899 232.72Z" fill="#A0616A"/>
<path d="M318.5 226.428C318.154 225.322 317.384 224.397 316.358 223.857C315.339 223.329 314.252 222.947 313.127 222.722C311.16 222.156 309.122 221.877 307.075 221.893C305.035 221.994 302.948 222.698 301.562 224.199C300.175 225.7 299.661 228.083 300.671 229.859L300.559 230.318C302.178 230.511 303.818 230.23 305.281 229.509C306.744 228.789 307.966 227.66 308.8 226.259C309.566 227.468 310.653 228.44 311.94 229.065C313.226 229.69 314.662 229.944 316.086 229.799C316.54 229.762 316.982 229.635 317.387 229.425C317.866 229.108 318.233 228.647 318.433 228.108C318.633 227.57 318.656 226.981 318.5 226.428V226.428Z" fill="#2F2E41"/>
<g filter="url(#filter0_d)">
<path d="M97.0116 146.023C131.812 146.023 160.023 117.812 160.023 83.0116C160.023 48.2113 131.812 20 97.0116 20C62.2112 20 34 48.2113 34 83.0116C34 117.812 62.2112 146.023 97.0116 146.023Z" fill="#F0F0F0"/>
<path d="M76.8515 87.4241L79.8753 97.8984L118.516 97.2167L118.177 78.0251C117.909 62.8342 107.174 49.7324 91.983 50.0004C76.7924 50.2684 67.1334 63.1107 67.4014 78.3016L69.6082 98.0796L75.9083 97.9684L76.8515 87.4241Z" fill="#2F2E41"/>
<path d="M93.7101 94.7484C103.285 94.7484 111.047 86.9863 111.047 77.4113C111.047 67.8362 103.285 60.0742 93.7101 60.0742C84.1351 60.0742 76.373 67.8362 76.373 77.4113C76.373 86.9863 84.1351 94.7484 93.7101 94.7484Z" fill="#FFB6B6"/>
<path d="M112.69 65.2375C112.667 63.9099 112.252 62.6189 111.496 61.5272C111.416 61.415 111.336 61.3108 111.256 61.2066C110.613 60.3868 109.79 59.7266 108.85 59.2776C107.911 58.8286 106.88 58.603 105.838 58.6183L93.3775 58.8426L80.9245 59.059C79.1405 59.0947 77.4432 59.8357 76.2042 61.1198C74.9652 62.4038 74.2853 64.1264 74.3133 65.9106L77.2785 71.8807L78.9853 75.3105L79.2658 75.1502C90.0438 69.092 94.4512 69.0118 108.716 74.6453L109.004 74.7575L110.134 71.8646L112.698 65.3015L112.69 65.2375Z" fill="#2F2E41"/>
<path d="M128.22 104.448C124.501 100.738 111.92 102.212 111.92 102.212L78.7121 104.304C71.3472 104.848 64.712 110.746 62.3081 113.134C62.6924 113.511 63.0854 113.88 63.4866 114.232C70.8662 120.791 80.1425 124.83 89.9714 125.764C99.8003 126.697 109.671 124.477 118.154 119.425C121.712 117.301 126.264 114.755 129.117 111.782C130.247 110.612 131.151 110.636 132.153 109.354C131.403 107.338 130.024 105.618 128.22 104.448V104.448Z" fill="#ED3D32"/>
</g>
<circle cx="145.198" cy="34.8264" r="13.5907" fill="#4FD0AD"/>
<path d="M137.784 36.0616L142.417 41.0037L153.228 29.884" stroke="white" stroke-width="3" stroke-linecap="round" stroke-linejoin="round"/>
<circle cx="248.98" cy="33.5907" r="13.5907" fill="#FFB43F"/>
<path d="M241.568 34.8263L246.202 39.7684L257.012 28.6487" stroke="white" stroke-width="3" stroke-linecap="round" stroke-linejoin="round"/>
<circle cx="339.791" cy="124.401" r="14.2085" fill="#ED3D32"/>
<path d="M334.232 129.961L345.043 118.842" stroke="white" stroke-width="3" stroke-linecap="round" stroke-linejoin="round"/>
<path d="M334.23 118.842L345.35 129.652" stroke="white" stroke-width="3" stroke-linecap="round" stroke-linejoin="round"/>
<path d="M217.872 271.606C237.539 271.606 253.482 255.663 253.482 235.996C253.482 216.329 237.539 200.386 217.872 200.386C198.205 200.386 182.262 216.329 182.262 235.996C182.262 255.663 198.205 271.606 217.872 271.606Z" fill="#F0F0F0"/>
<path d="M217.29 241.104C222.727 241.104 227.134 236.697 227.134 231.259C227.134 225.822 222.727 221.415 217.29 221.415C211.852 221.415 207.445 225.822 207.445 231.259C207.445 236.697 211.852 241.104 217.29 241.104Z" fill="#FFB8B8"/>
<path d="M207.977 234.34C207.977 234.34 208.813 232.871 208.619 227.964C208.424 223.057 215.897 225.832 222.141 225.364C228.385 224.896 227.063 233.557 227.063 233.557C227.063 233.557 227.513 233.042 228.478 228.862C229.442 224.682 227.252 220.517 227.252 220.517C226.607 216.124 223.132 217.532 223.132 217.532C224.806 218.184 224.484 219.577 224.484 219.577C223.067 217.093 219.591 218.501 219.591 218.501C214.956 215.592 210.258 219.422 210.258 219.422C204.658 220.693 207.942 225.147 207.942 225.147C202.31 227.993 207.977 234.34 207.977 234.34Z" fill="#2F2E41"/>
<path d="M233.717 254.365C230.911 252.886 227.982 251.653 224.963 250.681L224.578 246.422L208.965 244.74L206.981 250.183L201.378 252.286C201.177 252.362 200.986 252.461 200.809 252.582H200.803C199.886 252.66 199.002 252.965 198.233 253.47C197.711 253.803 197.247 254.22 196.859 254.702C197.617 255.277 198.404 255.81 199.216 256.319L199.252 256.337C199.483 256.479 199.72 256.621 199.956 256.758C200.383 257.012 200.821 257.255 201.259 257.486L201.538 257.628C202.177 257.96 202.829 258.274 203.498 258.564C203.635 258.623 203.783 258.683 203.919 258.742C203.931 258.748 203.937 258.748 203.948 258.754C204.262 258.884 204.576 259.008 204.896 259.127C205.947 259.528 207.018 259.872 208.106 260.157C210.883 260.897 213.744 261.272 216.617 261.271C217.666 261.271 218.702 261.223 219.727 261.123C222.069 260.907 224.38 260.44 226.621 259.731C226.627 259.731 226.634 259.725 226.639 259.725C228.055 259.274 229.439 258.726 230.779 258.084C230.785 258.078 230.797 258.078 230.803 258.072C231.105 257.93 231.395 257.776 231.691 257.628L231.834 257.557C232.071 257.433 232.308 257.308 232.545 257.178C233.137 256.852 233.717 256.509 234.291 256.142C234.451 256.047 234.606 255.946 234.765 255.84C234.99 255.691 235.215 255.537 235.435 255.378C234.884 255.022 234.31 254.685 233.717 254.365Z" fill="#ED3D32"/>
<defs>
<filter id="filter0_d" x="0" y="0" width="194.023" height="194.023" filterUnits="userSpaceOnUse" color-interpolation-filters="sRGB">
<feFlood flood-opacity="0" result="BackgroundImageFix"/>
<feColorMatrix in="SourceAlpha" type="matrix" values="0 0 0 0 0 0 0 0 0 0 0 0 0 0 0 0 0 0 127 0" result="hardAlpha"/>
<feOffset dy="14"/>
<feGaussianBlur stdDeviation="17"/>
<feColorMatrix type="matrix" values="0 0 0 0 0 0 0 0 0 0 0 0 0 0 0 0 0 0 0.15 0"/>
<feBlend mode="normal" in2="BackgroundImageFix" result="effect1_dropShadow"/>
<feBlend mode="normal" in="SourceGraphic" in2="effect1_dropShadow" result="shape"/>
</filter>
</defs>
</svg>
