<svg width="354" height="148" viewBox="0 0 354 148" fill="none" xmlns="http://www.w3.org/2000/svg">
<path d="M209.176 99.6435C221.697 99.6435 231.846 89.4939 231.846 76.9736C231.846 64.4534 221.697 54.3037 209.176 54.3037C196.656 54.3037 186.507 64.4534 186.507 76.9736C186.507 89.4939 196.656 99.6435 209.176 99.6435Z" fill="#F0F0F0"/>
<path d="M219.754 86.808C217.955 85.8248 216.077 85.0052 214.142 84.3584L213.895 81.5269L203.886 80.4085L202.614 84.0277L199.021 85.4257C198.893 85.4763 198.77 85.5424 198.657 85.6226H198.653C198.065 85.6743 197.498 85.8773 197.005 86.2133C196.67 86.4349 196.373 86.7116 196.124 87.0325C196.61 87.4145 197.115 87.7689 197.635 88.1076L197.658 88.1194C197.806 88.2139 197.958 88.3085 198.11 88.3991C198.383 88.5684 198.664 88.7298 198.945 88.8834L199.124 88.978C199.534 89.1985 199.952 89.4072 200.381 89.6002C200.468 89.6396 200.563 89.6789 200.65 89.7183C200.658 89.7223 200.662 89.7223 200.669 89.7262C200.871 89.8129 201.072 89.8955 201.277 89.9743C201.95 90.2411 202.637 90.4699 203.335 90.6596C205.115 91.1516 206.949 91.4005 208.791 91.3999C209.464 91.3999 210.128 91.3684 210.785 91.3015C212.286 91.1578 213.768 90.8475 215.205 90.376C215.209 90.376 215.213 90.3721 215.216 90.3721C216.124 90.0721 217.011 89.7076 217.871 89.2812C217.874 89.2773 217.882 89.2773 217.886 89.2733C218.079 89.1788 218.265 89.0764 218.455 88.978L218.546 88.9307C218.698 88.848 218.85 88.7653 219.002 88.6787C219.382 88.4621 219.754 88.2337 220.122 87.9895C220.225 87.9265 220.323 87.8595 220.426 87.7886C220.57 87.6902 220.714 87.5878 220.855 87.4815C220.502 87.2451 220.134 87.0207 219.754 86.808Z" fill="#ED3D32"/>
<path d="M208.49 79.0346C212.284 79.0346 215.359 75.6513 215.359 71.4779C215.359 67.3045 212.284 63.9213 208.49 63.9213C204.696 63.9213 201.62 67.3045 201.62 71.4779C201.62 75.6513 204.696 79.0346 208.49 79.0346Z" fill="#A0616A"/>
<path d="M203.552 68.1587C204.324 69.0704 205.631 69.3277 206.837 69.4332C209.285 69.6474 212.845 69.2999 215.238 68.7488C215.408 70.4001 214.943 72.1805 215.918 73.5388C216.375 71.8944 216.64 70.2029 216.71 68.4978C216.782 67.7662 216.687 67.0277 216.43 66.3387C216.292 65.9934 216.061 65.6935 215.761 65.4731C215.461 65.2526 215.105 65.1205 214.734 65.0916C215.29 64.671 215.941 64.3933 216.63 64.2831L214.261 63.0956L214.869 62.4726L210.581 62.2108L211.823 61.4235C209.954 61.1673 208.062 61.1077 206.181 61.2458C205.307 61.3101 204.393 61.4328 203.685 61.9379C202.977 62.4431 202.568 63.447 203.007 64.1887C202.457 64.2788 201.939 64.5076 201.502 64.8535C201.065 65.1993 200.724 65.6507 200.511 66.1648C200.241 66.982 200.176 67.8526 200.321 68.7007C200.483 70.0614 200.8 71.3992 201.266 72.688L203.552 68.1587Z" fill="#2F2E41"/>
<path d="M266.919 99.6435C279.439 99.6435 289.589 89.4939 289.589 76.9736C289.589 64.4534 279.439 54.3037 266.919 54.3037C254.398 54.3037 244.249 64.4534 244.249 76.9736C244.249 89.4939 254.398 99.6435 266.919 99.6435Z" fill="#F0F0F0"/>
<path d="M275.861 86.6432L272.091 86.2922L269.834 84.6048C269.835 84.6016 269.834 84.5984 269.832 84.5959L269.826 84.5988L269.735 84.5303L269.724 84.6376L265.916 86.1372L262.003 85.213L260.65 86.7125L254.62 88.7607C254.33 88.9584 254.075 89.2054 253.866 89.491L253.867 89.4949C254.12 89.6978 254.38 89.8978 254.644 90.0873C255.241 90.5295 255.862 90.9376 256.504 91.3096C258.065 92.2214 259.734 92.9238 261.471 93.3995C261.628 93.4442 261.785 93.4859 261.942 93.5247C262.216 93.5933 262.492 93.6588 262.769 93.7125C263.328 93.8318 263.894 93.9252 264.466 93.9927C265.308 94.0973 266.154 94.149 267.002 94.1478C267.581 94.1478 268.155 94.1249 268.722 94.0792C269.72 93.997 270.71 93.8425 271.686 93.6171C271.721 93.6082 271.756 93.6022 271.791 93.5903C273.286 93.2393 274.738 92.7215 276.123 92.046C276.335 91.9417 276.548 91.8343 276.757 91.724C277.273 91.4527 277.773 91.1606 278.259 90.8476C278.626 90.615 278.984 90.3676 279.334 90.1112C279.549 89.9532 279.762 89.7922 279.971 89.6252L279.949 89.5759C279.576 88.7642 279.003 88.0664 278.286 87.552C277.569 87.0375 276.733 86.7242 275.861 86.6432Z" fill="#ED3D32"/>
<path d="M271.61 67.9816C271.164 67.5166 270.66 67.1166 270.113 66.7923C266.734 64.8298 263.043 64.7957 259.985 66.696C259.225 67.1673 258.531 67.7473 257.923 68.4194C256.207 70.3032 255.247 72.8094 255.24 75.4183V83.1563H274.475V74.6265C274.475 72.3411 273.28 69.6956 271.61 67.9816Z" fill="#2F2E41"/>
<path d="M264.858 81.7824C268.652 81.7824 271.728 78.7067 271.728 74.9127C271.728 71.1187 268.652 68.0431 264.858 68.0431C261.064 68.0431 257.988 71.1187 257.988 74.9127C257.988 78.7067 261.064 81.7824 264.858 81.7824Z" fill="#FFB8B8"/>
<path d="M272.71 69.0378C272.695 68.877 272.642 68.723 272.555 68.5908C272.468 68.4585 272.35 68.3526 272.213 68.2834C267.771 66.0747 263.267 66.1325 258.832 68.4568H258.751L258.723 68.5756C257.849 75.7473 257.973 75.9047 258.027 75.9689C258.113 76.0726 258.219 76.1548 258.338 76.2096C258.447 76.2609 258.565 76.2872 258.684 76.2867H268.809L268.833 76.1647C268.95 75.5227 269.101 74.8882 269.285 74.2642C269.688 74.8909 270.06 75.5403 270.398 76.2096L270.44 76.2867H272.408C272.446 76.2867 272.483 76.2834 272.52 76.277C272.723 76.251 272.911 76.1472 273.048 75.9849C273.102 75.9239 273.228 75.7762 272.71 69.0378Z" fill="#2F2E41"/>
<path d="M324.46 100.75C336.981 100.75 347.13 90.6005 347.13 78.0802C347.13 65.56 336.981 55.4103 324.46 55.4103C311.94 55.4103 301.791 65.56 301.791 78.0802C301.791 90.6005 311.94 100.75 324.46 100.75Z" fill="#F0F0F0"/>
<path d="M329.09 86.8999L328.841 84.0256L318.696 82.889L317.411 86.5667L313.769 87.986C313.637 88.0368 313.511 88.1037 313.394 88.1853C312.667 88.2539 311.976 88.546 311.408 89.0244C311.491 89.0958 311.574 89.1643 311.657 89.2327C311.675 89.2506 311.695 89.2654 311.712 89.2803C311.943 89.4677 312.181 89.6522 312.421 89.8278C312.484 89.8754 312.547 89.923 312.613 89.9676C313.141 90.3563 313.687 90.7168 314.249 91.0477C314.787 91.3661 315.34 91.6597 315.906 91.9285C316.947 92.4231 318.025 92.8262 319.13 93.1336C319.285 93.1782 319.439 93.2199 319.594 93.2585C319.863 93.327 320.135 93.3924 320.406 93.446C320.956 93.565 321.512 93.6582 322.074 93.7257C322.901 93.83 323.733 93.8817 324.566 93.8804C325.136 93.8804 325.699 93.8576 326.257 93.812C327.237 93.7299 328.211 93.5757 329.17 93.3508C329.204 93.3418 329.238 93.3359 329.273 93.324C330.742 92.9737 332.169 92.4569 333.53 91.7827C333.739 91.6786 333.948 91.5714 334.154 91.4613C334.66 91.1906 335.152 90.899 335.63 90.5865C335.802 90.4764 335.97 90.3634 336.139 90.2444C333.544 88.4293 329.776 87.129 329.09 86.8999Z" fill="#ED3D32"/>
<path d="M323.087 81.515C327.26 81.515 330.643 78.4394 330.643 74.6454C330.643 70.8514 327.26 67.7757 323.087 67.7757C318.913 67.7757 315.53 70.8514 315.53 74.6454C315.53 78.4394 318.913 81.515 323.087 81.515Z" fill="#A0616A"/>
<path d="M318.837 70.6131C319.61 71.5295 320.916 71.7879 322.122 71.893C324.57 72.1084 328.129 71.7591 330.522 71.2053C330.694 72.8647 330.227 74.654 331.202 76.0193C331.659 74.3666 331.924 72.6667 331.994 70.953C332.066 70.2178 331.971 69.4757 331.714 68.7832C331.576 68.4362 331.345 68.1347 331.045 67.9132C330.745 67.6916 330.39 67.5588 330.018 67.5299C330.1 67.4452 330.157 67.339 330.181 67.2235C330.205 67.108 330.196 66.988 330.155 66.8775C330.065 66.4871 329.867 66.1302 329.583 65.8482C329.299 65.5662 328.941 65.3705 328.551 65.2839L325.866 64.635C325.866 64.635 323.346 63.5268 321.464 63.666C320.59 63.7305 319.676 63.8538 318.968 64.3615C318.26 64.8693 317.851 65.8782 318.291 66.6234C317.741 66.714 317.223 66.944 316.786 67.2916C316.349 67.6391 316.008 68.0927 315.795 68.6094C315.525 69.4308 315.46 70.3057 315.605 71.1581C315.767 72.5255 316.084 73.87 316.55 75.1653L318.837 70.6131Z" fill="#2F2E41"/>
<path d="M151.471 99.6435C163.991 99.6435 174.141 89.4939 174.141 76.9736C174.141 64.4534 163.991 54.3037 151.471 54.3037C138.951 54.3037 128.801 64.4534 128.801 76.9736C128.801 89.4939 138.951 99.6435 151.471 99.6435Z" fill="#F0F0F0"/>
<path d="M152.845 63.9213C154.742 63.9213 156.28 62.691 156.28 61.1734C156.28 59.6558 154.742 58.4256 152.845 58.4256C150.948 58.4256 149.41 59.6558 149.41 61.1734C149.41 62.691 150.948 63.9213 152.845 63.9213Z" fill="#2F2E41"/>
<path d="M150.435 62.8489C150.171 62.4407 149.976 61.9262 149.868 61.3556C149.761 60.7851 149.744 60.178 149.821 59.5938C149.897 59.0096 150.064 58.4682 150.304 58.0226C150.545 57.577 150.851 57.2424 151.192 57.0516C150.906 57.121 150.632 57.2884 150.387 57.5432C150.142 57.7981 149.931 58.1347 149.769 58.5318C149.607 58.9288 149.496 59.3775 149.444 59.8493C149.392 60.3211 149.4 60.8057 149.468 61.272C149.535 61.7384 149.66 62.1765 149.835 62.5582C150.01 62.94 150.232 63.2571 150.485 63.4893C150.738 63.7216 151.017 63.8639 151.306 63.9072C151.594 63.9505 151.884 63.8938 152.158 63.7408C151.849 63.8166 151.533 63.7757 151.235 63.6212C150.936 63.4667 150.663 63.2026 150.434 62.8486L150.435 62.8489Z" fill="#2F2E41"/>
<path d="M152.845 80.4085C157.777 80.4085 161.776 76.4101 161.776 71.4779C161.776 66.5457 157.777 62.5473 152.845 62.5473C147.913 62.5473 143.915 66.5457 143.915 71.4779C143.915 76.4101 147.913 80.4085 152.845 80.4085Z" fill="#2F2E41"/>
<path d="M145.275 67.1899C146.814 65.537 148.966 64.5197 151.275 64.3528C153.585 64.1859 155.872 64.8824 157.654 66.2954C157.581 66.229 157.508 66.1622 157.433 66.0979C155.669 64.5884 153.348 63.8101 150.983 63.9341C148.618 64.0582 146.401 65.0746 144.82 66.7596C143.239 68.4446 142.424 70.6602 142.554 72.9191C142.684 75.1779 143.748 77.295 145.513 78.8045C145.53 78.819 145.547 78.8334 145.564 78.8478C145.64 78.9122 145.718 78.973 145.795 79.0346C144.117 77.51 143.125 75.4225 143.028 73.2126C142.931 71.0026 143.737 68.8432 145.276 67.1899H145.275Z" fill="#2F2E41"/>
<path d="M152.846 80.4085C156.26 80.4085 159.028 77.9479 159.028 74.9127C159.028 71.8775 156.26 69.417 152.846 69.417C149.431 69.417 146.663 71.8775 146.663 74.9127C146.663 77.9479 149.431 80.4085 152.846 80.4085Z" fill="#A0616A"/>
<path d="M163.15 89.9947V92.0931C162.797 92.3385 162.441 92.5682 162.078 92.7859C161.933 92.873 161.787 92.9562 161.642 93.0393L161.555 93.0868C161.373 93.1858 161.195 93.2887 161.01 93.3838C161.006 93.3877 160.999 93.3877 160.995 93.3917C160.172 93.8204 159.324 94.1868 158.455 94.4884C158.451 94.4884 158.448 94.4924 158.444 94.4924C157.069 94.9664 155.651 95.2783 154.214 95.4228C153.586 95.4901 152.95 95.5217 152.307 95.5217C150.544 95.5223 148.789 95.2721 147.085 94.7774C146.216 94.5285 145.364 94.215 144.534 93.8391C144.527 93.8351 144.523 93.8351 144.516 93.8312C144.433 93.7916 144.342 93.752 144.258 93.7124C143.848 93.5184 143.448 93.3086 143.055 93.0868L142.885 92.9918C142.467 92.7503 142.056 92.4969 141.653 92.2237L141.631 92.2118C141.01 91.7902 140.411 91.3315 139.836 90.838C139.542 90.5925 139.258 90.3352 138.982 90.0659C138.837 89.9313 138.691 89.7888 138.553 89.6502C138.022 89.116 137.519 88.5503 137.045 87.9557C137.108 87.5433 137.2 87.1369 137.321 86.7402L137.325 86.7362C137.347 86.6686 137.372 86.6025 137.401 86.5383C137.421 86.4814 137.444 86.4259 137.47 86.372C138.121 85.0457 139.298 84.717 140.759 84.6458C141.584 84.6062 142.496 84.6497 143.459 84.6378C143.967 84.6339 144.494 84.6141 145.021 84.5626C148.346 84.234 147.743 82.096 147.892 80.9439C148.041 79.8274 148.964 80.7935 149.026 80.8568L149.029 80.8608C150.911 81.8202 152.992 82.2178 155.061 82.0129C155.417 81.9654 155.773 81.9377 156.129 81.9258C157.067 81.9139 156.863 82.2069 156.54 82.4484C156.383 82.5609 156.219 82.6615 156.05 82.7493C156.05 82.7493 155.901 83.7391 155.748 85.2199C155.603 86.6372 160.185 87.1282 161.082 87.437H161.086C161.598 87.6423 162.055 87.9838 162.416 88.4304C162.776 88.8771 163.029 89.4148 163.15 89.9947V89.9947Z" fill="#ED3D32"/>
<path d="M147.35 74.9128C147.729 74.9128 148.037 74.2976 148.037 73.5388C148.037 72.78 147.729 72.1649 147.35 72.1649C146.97 72.1649 146.663 72.78 146.663 73.5388C146.663 74.2976 146.97 74.9128 147.35 74.9128Z" fill="#A0616A"/>
<path d="M158.341 74.9128C158.72 74.9128 159.028 74.2976 159.028 73.5388C159.028 72.78 158.72 72.1649 158.341 72.1649C157.962 72.1649 157.654 72.78 157.654 73.5388C157.654 74.2976 157.962 74.9128 158.341 74.9128Z" fill="#A0616A"/>
<path d="M158.967 70.981C158.761 70.2641 158.302 69.6652 157.691 69.3158C157.085 68.9734 156.437 68.7258 155.767 68.58C154.596 68.2135 153.383 68.0328 152.164 68.0435C150.949 68.1085 149.707 68.5647 148.881 69.5369C148.056 70.5091 147.75 72.0527 148.351 73.2032L148.285 73.5006C149.249 73.6253 150.225 73.4433 151.096 72.9767C151.967 72.5101 152.695 71.7788 153.191 70.8714C153.647 71.6544 154.294 72.2838 155.061 72.6888C155.827 73.0938 156.682 73.2585 157.529 73.1643C157.8 73.1406 158.063 73.0582 158.304 72.9219C158.59 72.7169 158.808 72.4182 158.927 72.0693C159.046 71.7203 159.06 71.3392 158.967 70.981V70.981Z" fill="#2F2E41"/>
<g filter="url(#filter0_d)">
<path d="M74.531 99.6882C96.9157 99.6882 115.062 81.8494 115.062 59.8441C115.062 37.8389 96.9157 20.0001 74.531 20.0001C52.1464 20.0001 34 37.8389 34 59.8441C34 81.8494 52.1464 99.6882 74.531 99.6882Z" fill="#F0F0F0"/>
<path d="M60.7083 62.7633L62.6588 69.3478L87.5835 68.9193L87.3651 56.8548C87.1923 47.3054 80.2672 39.0692 70.4687 39.2377C60.6702 39.4061 54.4398 47.4792 54.6126 57.0286L56.0361 69.4617L60.0999 69.3918L60.7083 62.7633Z" fill="#2F2E41"/>
<path d="M72.4702 66.7138C78.5406 66.7138 83.4617 61.7928 83.4617 55.7223C83.4617 49.6519 78.5406 44.7309 72.4702 44.7309C66.3998 44.7309 61.4788 49.6519 61.4788 55.7223C61.4788 61.7928 66.3998 66.7138 72.4702 66.7138Z" fill="#FFB6B6"/>
<path d="M84.8305 48.5449C84.8156 47.7801 84.5479 47.0362 84.0611 46.4073C84.0097 46.3426 83.958 46.2826 83.9063 46.2226C83.4924 45.7502 82.9621 45.3699 82.3566 45.1112C81.7511 44.8525 81.087 44.7225 80.4161 44.7313L72.3878 44.8606L64.3647 44.9852C63.2153 45.0058 62.1218 45.4327 61.3235 46.1725C60.5253 46.9123 60.0872 47.9048 60.1053 48.9327L62.0157 52.3723L63.1153 54.3484L63.296 54.2561C70.24 50.7657 73.0796 50.7195 82.2697 53.9652L82.4555 54.0298L83.1836 52.3631L84.8355 48.5818L84.8305 48.5449Z" fill="#2F2E41"/>
<path d="M94.6471 73.7963C92.2331 71.4646 84.0661 72.3912 84.0661 72.3912L62.5095 73.7056C57.7286 74.048 53.4213 77.7545 51.8608 79.2552C52.1103 79.4919 52.3654 79.7235 52.6258 79.9451C57.4163 84.0669 63.438 86.6051 69.8184 87.1919C76.1989 87.7786 82.6065 86.3834 88.113 83.2084C90.4227 81.8739 93.378 80.2738 95.2298 78.4055C95.9634 77.6703 96.5504 77.6849 97.2006 76.8792C96.7139 75.6125 95.8185 74.5315 94.6471 73.7963V73.7963Z" fill="#ED3D32"/>
</g>
<path d="M113.688 28.9306C113.688 33.8628 109.69 37.8611 104.758 37.8611C99.8255 37.8611 95.8271 33.8628 95.8271 28.9306C95.8271 23.9984 99.8255 20 104.758 20C109.69 20 113.688 23.9984 113.688 28.9306Z" fill="#4FD0AD"/>
<path fill-rule="evenodd" clip-rule="evenodd" d="M110.529 24.5041C111.066 25.0242 111.079 25.8794 110.556 26.4143L103.8 33.3301C103.542 33.5948 103.186 33.7426 102.815 33.7393C102.444 33.7359 102.091 33.5817 101.837 33.3124L98.9418 30.2387C98.4291 29.6944 98.4568 28.8396 99.0037 28.3293C99.5505 27.8191 100.409 27.8466 100.922 28.3909L102.845 30.4324L108.61 24.531C109.132 23.9961 109.992 23.9841 110.529 24.5041Z" fill="white"/>
<path d="M179.637 62.5473C179.637 67.1002 175.946 70.7909 171.393 70.7909C166.84 70.7909 163.15 67.1002 163.15 62.5473C163.15 57.9945 166.84 54.3037 171.393 54.3037C175.946 54.3037 179.637 57.9945 179.637 62.5473Z" fill="#FFB43F"/>
<path fill-rule="evenodd" clip-rule="evenodd" d="M177.852 58.8078C178.389 59.3279 178.402 60.1831 177.879 60.718L171.123 67.6339C170.865 67.8985 170.509 68.0464 170.138 68.043C169.767 68.0397 169.414 67.8854 169.16 67.6161L166.265 64.5424C165.752 63.9982 165.78 63.1433 166.327 62.633C166.874 62.1228 167.732 62.1504 168.245 62.6946L170.168 64.7361L175.933 58.8348C176.455 58.2998 177.315 58.2878 177.852 58.8078Z" fill="white"/>
<path d="M354 64.3409C354 69.2731 350.001 73.2715 345.069 73.2715C340.137 73.2715 336.139 69.2731 336.139 64.3409C336.139 59.4087 340.137 55.4103 345.069 55.4103C350.001 55.4103 354 59.4087 354 64.3409Z" fill="#ED3D32"/>
<path fill-rule="evenodd" clip-rule="evenodd" d="M349.461 59.9144C350.007 60.4345 350.019 61.2897 349.488 61.8246L342.627 68.7405C342.097 69.2754 341.224 69.2874 340.678 68.7674C340.132 68.2473 340.12 67.3921 340.651 66.8572L347.512 59.9413C348.042 59.4064 348.915 59.3944 349.461 59.9144Z" fill="white"/>
<path fill-rule="evenodd" clip-rule="evenodd" d="M349.496 68.7321C348.976 69.2779 348.121 69.2902 347.586 68.7596L340.67 61.8988C340.135 61.3681 340.123 60.4955 340.643 59.9497C341.163 59.4038 342.018 59.3916 342.553 59.9222L349.469 66.783C350.004 67.3137 350.016 68.1863 349.496 68.7321Z" fill="white"/>
<defs>
<filter id="filter0_d" x="0" y="6.10352e-05" width="149.062" height="147.688" filterUnits="userSpaceOnUse" color-interpolation-filters="sRGB">
<feFlood flood-opacity="0" result="BackgroundImageFix"/>
<feColorMatrix in="SourceAlpha" type="matrix" values="0 0 0 0 0 0 0 0 0 0 0 0 0 0 0 0 0 0 127 0" result="hardAlpha"/>
<feOffset dy="14"/>
<feGaussianBlur stdDeviation="17"/>
<feColorMatrix type="matrix" values="0 0 0 0 0 0 0 0 0 0 0 0 0 0 0 0 0 0 0.15 0"/>
<feBlend mode="normal" in2="BackgroundImageFix" result="effect1_dropShadow"/>
<feBlend mode="normal" in="SourceGraphic" in2="effect1_dropShadow" result="shape"/>
</filter>
</defs>
</svg>
