<svg width="320" height="253" viewBox="0 0 320 253" fill="none" xmlns="http://www.w3.org/2000/svg">
<path d="M56.4541 245.18H63.5583L64.8765 217.632L56.4534 217.78L56.4541 245.18Z" fill="#A0616A"/>
<path d="M54.6423 242.861L68.6322 242.86H68.6327C70.9971 242.86 73.2647 243.8 74.9367 245.471C76.6086 247.143 77.548 249.411 77.5481 251.775V252.065L54.6427 252.066L54.6423 242.861Z" fill="#2F2E41"/>
<path d="M27.7373 245.18H34.8407L36.2488 217.632L27.7358 217.78L27.7373 245.18Z" fill="#A0616A"/>
<path d="M25.925 242.861L39.9148 242.86H39.9154C42.2799 242.86 44.5474 243.8 46.2194 245.471C47.8913 247.143 48.8307 249.411 48.8308 251.775V252.065L25.9254 252.066L25.925 242.861Z" fill="#2F2E41"/>
<path d="M96.9362 127.164C96.908 126.341 96.6997 125.534 96.326 124.801C95.9523 124.067 95.4223 123.424 94.7733 122.917C94.1243 122.411 93.3721 122.053 92.5698 121.868C91.7674 121.684 90.9343 121.677 90.1292 121.849L79.7572 104.733L75.2991 114.129L85.832 128.943C86.2111 130.276 87.0661 131.424 88.235 132.169C89.4039 132.914 90.8056 133.205 92.1743 132.985C93.543 132.766 94.7838 132.052 95.6614 130.979C96.5391 129.906 96.9926 128.549 96.9362 127.164V127.164Z" fill="#A0616A"/>
<path d="M10.2644 145.067C10.7484 144.401 11.0805 143.637 11.2373 142.829C11.3941 142.02 11.3717 141.188 11.1718 140.389C10.9719 139.59 10.5993 138.845 10.0803 138.206C9.56121 137.567 8.90833 137.049 8.16762 136.69L10.5213 116.815L1.22599 121.48L0.415956 139.638C-0.105526 140.922 -0.137753 142.353 0.325367 143.66C0.788487 144.966 1.71478 146.058 2.92873 146.727C4.14268 147.396 5.55993 147.597 6.91195 147.291C8.26396 146.985 9.45679 146.194 10.2644 145.067V145.067Z" fill="#A0616A"/>
<path d="M60.6201 124.934L65.6506 127.914C65.6506 127.914 69.7381 130.516 68.3636 148.614C66.989 166.712 65.3464 239.22 65.3464 239.22H56.4296L41.988 152.605L36.7186 240.159L27.3324 239.69C27.3324 239.69 8.15534 140.009 16.4532 129.191L60.6201 124.934Z" fill="#2F2E41"/>
<path d="M13.4167 60.8872C13.4167 60.8872 37.8802 53.0226 57.6179 60.3551L56.002 98.4273L68.177 128.125C68.177 128.125 29.4712 143.139 16.5726 130.521L20.3344 100.774L13.4167 60.8872Z" fill="#FFB43F"/>
<path d="M51.0415 64.8266L56.1679 60.3552C56.1679 60.3552 59.5875 60.3148 62.5303 65.5758C65.4731 70.8368 70.8046 87.8186 70.8046 87.8186L87.873 116.731L80.3641 121.893L53.2934 84.0337L51.0415 64.8266Z" fill="#FFB43F"/>
<path d="M14.3243 62.7645L14.674 60.3792C14.674 60.3792 5.14214 61.0844 4.33581 70.2688C3.52948 79.4533 0.581299 131.279 0.581299 131.279L10.0097 133.156L19.389 79.9647L14.3243 62.7645Z" fill="#FFB43F"/>
<path d="M47.3692 47.1273L18.7721 52.7585C18.1838 52.8737 17.5737 52.7508 17.0759 52.4167C16.578 52.0827 16.233 51.5648 16.1165 50.9767L13.6892 38.6503C13.2621 36.4812 13.2664 34.2492 13.7019 32.0818C14.1374 29.9144 14.9954 27.854 16.2272 26.0182C18.7148 22.3106 22.5734 19.7431 26.9541 18.8805C31.3347 18.0179 35.8786 18.9308 39.5862 21.4184C43.2938 23.906 45.8612 27.7646 46.7238 32.1453L49.1511 44.4716C49.2663 45.06 49.1434 45.67 48.8093 46.1679C48.4753 46.6658 47.9574 47.0108 47.3692 47.1273V47.1273Z" fill="#2F2E41"/>
<path d="M34.0234 49.2201C40.8399 49.2201 46.3658 43.6942 46.3658 36.8776C46.3658 30.0611 40.8399 24.5352 34.0234 24.5352C27.2068 24.5352 21.6809 30.0611 21.6809 36.8776C21.6809 43.6942 27.2068 49.2201 34.0234 49.2201Z" fill="#A0616A"/>
<path d="M50.874 32.6085L33.3876 36.0518L32.7139 33.5766L32.3117 36.2637L29.6192 36.7939L28.284 31.8881L27.4869 37.2138L22.2769 38.2397L22.2284 37.9932C21.5501 34.5284 22.2739 30.9359 24.241 28.0041C26.2082 25.0723 29.2579 23.0405 32.7212 22.3544L35.1867 21.869C38.6515 21.1907 42.2439 21.9146 45.1757 23.8817C48.1076 25.8489 50.1394 28.8987 50.8255 32.362L50.874 32.6085Z" fill="#2F2E41"/>
<path d="M36.319 51.6934C36.1874 51.7192 36.0537 51.7334 35.9195 51.736L22.6703 51.9982L18.5032 30.8364L32.5983 28.0609L32.3295 28.5365C28.5893 35.1549 34.0552 43.6163 37.6461 48.071C37.9104 48.397 38.0771 48.791 38.1272 49.2076C38.1773 49.6242 38.1088 50.0466 37.9294 50.426C37.7804 50.7495 37.5567 51.0331 37.2767 51.2534C36.9968 51.4738 36.6686 51.6246 36.319 51.6934V51.6934Z" fill="#2F2E41"/>
<path d="M224.927 243.811H232.955L236.774 212.848L224.926 212.848L224.927 243.811Z" fill="#854750"/>
<path d="M222.879 241.19L238.688 241.189H238.689C241.361 241.189 243.923 242.251 245.813 244.14C247.702 246.029 248.763 248.592 248.764 251.264V251.591L222.88 251.592L222.879 241.19Z" fill="#2F2E41"/>
<path d="M181.464 243.811H189.491L193.31 212.848L181.462 212.848L181.464 243.811Z" fill="#854750"/>
<path d="M179.417 241.19L195.226 241.189H195.227C197.899 241.189 200.461 242.251 202.35 244.14C204.24 246.029 205.301 248.592 205.301 251.264V251.591L179.418 251.592L179.417 241.19Z" fill="#2F2E41"/>
<path d="M178.194 103.479V185.232L180.264 238.009H197.339L203.03 138.664L214.413 179.54L221.657 236.973L242.354 235.939L228.384 103.479H178.194Z" fill="#2F2E41"/>
<path d="M198.043 30.0055C204.901 30.0055 210.461 24.4458 210.461 17.5875C210.461 10.7292 204.901 5.16939 198.043 5.16939C191.185 5.16939 185.625 10.7292 185.625 17.5875C185.625 24.4458 191.185 30.0055 198.043 30.0055Z" fill="#854750"/>
<path d="M192.883 33.2408L189.576 36.7323L186.472 106.584L223.209 105.549L214.413 44.4938L206.651 37.056L202.713 33.2408H192.883Z" fill="#FFB43F"/>
<path d="M186.99 40.8715L189.779 36.3456L190.612 46.0457C190.612 46.0457 197.338 67.7773 196.821 86.9218C196.304 106.066 199.408 151.082 195.269 151.599C191.129 152.117 173.537 153.152 173.537 149.53C173.537 145.908 172.502 49.6676 172.502 49.6676L186.99 40.8715Z" fill="#3F3D56"/>
<path d="M205.818 36.3456L212.861 41.9063L228.383 47.5979C228.383 47.5979 228.383 113.828 231.488 129.35C234.592 144.873 240.284 146.425 233.04 146.943C225.796 147.46 226.314 144.873 226.314 144.873C226.314 144.873 231.488 119.002 224.761 113.828C218.035 108.653 205.099 78.6431 206.134 62.0857C207.169 45.5282 204.783 36.3456 205.818 36.3456Z" fill="#3F3D56"/>
<path d="M186.295 21.4726C186.295 21.4726 187.35 19.6197 187.104 13.4298C186.859 7.23993 196.285 10.7408 204.161 10.1504C212.037 9.55987 210.37 20.4845 210.37 20.4845C210.37 20.4845 210.938 19.8351 212.155 14.5626C213.371 9.29001 210.609 4.03569 210.609 4.03569C209.795 -1.50479 205.411 0.270943 205.411 0.270943C207.523 1.0929 207.117 2.85042 207.117 2.85042C205.33 -0.283112 200.946 1.49263 200.946 1.49263C195.098 -2.17673 189.172 2.65536 189.172 2.65536C182.108 4.25852 186.251 9.87617 186.251 9.87617C179.147 13.4662 186.295 21.4726 186.295 21.4726Z" fill="#2F2E41"/>
<path d="M173.554 142.048C174.08 141.491 174.478 140.826 174.72 140.1C174.962 139.373 175.041 138.602 174.952 137.842C174.864 137.081 174.61 136.349 174.207 135.697C173.805 135.045 173.265 134.49 172.625 134.069L174.862 122.31L168.047 119.207L165.122 135.858C164.487 136.981 164.285 138.297 164.556 139.557C164.826 140.818 165.549 141.936 166.589 142.698C167.628 143.461 168.911 143.816 170.195 143.697C171.479 143.577 172.674 142.99 173.554 142.048V142.048Z" fill="#854750"/>
<path d="M175.089 49.6673L173.715 48.9307C173.715 48.9307 166.293 51.737 166.81 53.8067C167.328 55.8764 162.671 128.315 164.223 130.902C165.776 133.489 178.194 131.42 178.194 131.42L175.089 49.6673Z" fill="#3F3D56"/>
<path d="M234.157 137.171C233.559 136.693 233.072 136.089 232.733 135.403C232.393 134.717 232.208 133.964 232.19 133.199C232.173 132.433 232.323 131.673 232.631 130.972C232.939 130.271 233.397 129.646 233.973 129.141L230.13 117.804L236.45 113.788L241.652 129.874C242.436 130.898 242.818 132.173 242.724 133.459C242.631 134.745 242.069 135.952 241.145 136.852C240.221 137.751 239 138.28 237.712 138.339C236.424 138.398 235.159 137.982 234.157 137.171V137.171Z" fill="#FFB7B7"/>
<path d="M228.091 127.287C228.091 127.287 240.676 127.619 241.856 124.842C243.035 122.065 228.4 50.967 228.627 48.8456C228.853 46.7242 221.113 44.9719 221.113 44.9719L219.855 45.8915L228.091 127.287Z" fill="#3F3D56"/>
<path d="M283.715 130.486L275.923 92.3074L272.501 64.1087L264.918 69.014L265.965 100.089L278.068 132.286C277.679 133.027 277.519 133.867 277.609 134.698C277.698 135.53 278.033 136.317 278.571 136.958C279.109 137.599 279.825 138.066 280.629 138.299C281.432 138.532 282.287 138.52 283.084 138.266C283.882 138.012 284.585 137.527 285.106 136.872C285.626 136.217 285.941 135.422 286.008 134.588C286.076 133.754 285.894 132.918 285.485 132.188C285.077 131.458 284.461 130.865 283.715 130.486H283.715Z" fill="#FFB7B7"/>
<path d="M210.841 133.438L212.998 94.5319L212.284 66.1352L222.308 69.8857L223.982 100.783L216.69 134.397C217.182 135.074 217.463 135.881 217.495 136.717C217.527 137.554 217.31 138.38 216.872 139.093C216.433 139.805 215.792 140.371 215.031 140.719C214.27 141.066 213.422 141.179 212.597 141.044C211.771 140.908 211.004 140.53 210.394 139.958C209.783 139.386 209.357 138.645 209.169 137.829C208.981 137.014 209.039 136.161 209.337 135.379C209.635 134.597 210.159 133.921 210.841 133.438V133.438Z" fill="#FFB7B7"/>
<path d="M231.836 246.551H236.958L239.395 226.794L231.836 226.794L231.836 246.551Z" fill="#FFB7B7"/>
<path d="M230.529 244.88L240.617 244.879H240.617C242.322 244.879 243.957 245.556 245.162 246.762C246.368 247.968 247.045 249.603 247.046 251.308V251.516L230.529 251.517L230.529 244.88Z" fill="#2F2E41"/>
<path d="M251.238 244.285L256.3 245.068L261.729 225.916L254.257 224.761L251.238 244.285Z" fill="#FFB7B7"/>
<path d="M250.202 242.433L260.171 243.975L260.171 243.975C261.856 244.235 263.368 245.155 264.375 246.53C265.382 247.906 265.802 249.626 265.541 251.31L265.509 251.517L249.187 248.992L250.202 242.433Z" fill="#2F2E41"/>
<path d="M230.332 240.653L230.305 240.509L211.762 140.252C210.29 132.203 211.464 123.894 215.108 116.569L226.332 94.122L259.822 98.6591L263.774 127.237L277.859 181.755L277.845 181.799L259.799 239.121L247.972 239.899L258.449 188.731L239.266 145.161L240.619 239.873L230.332 240.653Z" fill="#2F2E41"/>
<path d="M260.601 102.316L260.38 101.97C260.34 101.908 256.272 95.7788 245.202 99.8709C233.902 104.049 225.146 95.9793 225.058 95.8973L225.015 95.8564L222.456 73.046L219.435 54.5284L229.052 52.8411L233.78 50.0044L252.581 49.6697L257.529 53.561L265.652 54.4463L266.395 71.3191L266.392 71.3375L260.601 102.316Z" fill="#ED3D32"/>
<path d="M263.296 72.9512V58.5035L265.58 54.3347L265.673 54.3319C267.471 54.399 269.171 55.1711 270.404 56.4815C272.702 58.8159 273.742 62.7052 273.498 68.0412L273.493 68.1388L263.296 72.9512Z" fill="#ED3D32"/>
<path d="M223.482 71.3809L211.839 69.9837L211.83 69.8496C211.433 64.0439 212.446 59.7342 214.842 57.0407C216.045 55.6001 217.75 54.6713 219.613 54.443L219.68 54.4399L222.832 57.3049L223.482 71.3809Z" fill="#ED3D32"/>
<path d="M257.184 43.8483H226.548C225.918 43.8475 225.314 43.5969 224.868 43.1513C224.423 42.7057 224.172 42.1015 224.171 41.4713V30.379C224.167 28.0528 224.622 25.7487 225.51 23.5984C226.397 21.4481 227.7 19.494 229.343 17.8477C230.987 16.2015 232.939 14.8954 235.088 14.0043C237.236 13.1132 239.54 12.6545 241.866 12.6545C244.192 12.6545 246.496 13.1132 248.644 14.0043C250.793 14.8954 252.745 16.2015 254.389 17.8477C256.032 19.494 257.335 21.4481 258.222 23.5984C259.11 25.7487 259.565 28.0528 259.561 30.379V41.4713C259.56 42.1015 259.31 42.7057 258.864 43.1513C258.418 43.5969 257.814 43.8476 257.184 43.8483V43.8483Z" fill="#2F2E41"/>
<path d="M242.578 43.7389C249.743 43.7389 255.551 37.9306 255.551 30.7657C255.551 23.6007 249.743 17.7924 242.578 17.7924C235.413 17.7924 229.604 23.6007 229.604 30.7657C229.604 37.9306 235.413 43.7389 242.578 43.7389Z" fill="#FFB7B7"/>
<path d="M254.908 31.1712H237.78C237.459 31.1708 237.148 31.053 236.907 30.84C236.666 30.6271 236.51 30.3334 236.47 30.0142L236.248 28.2403C236.227 28.0697 236.151 27.9107 236.031 27.7872C235.912 27.6637 235.755 27.5825 235.585 27.5558C235.416 27.529 235.242 27.5583 235.09 27.639C234.938 27.7198 234.817 27.8477 234.744 28.0035L233.621 30.4093C233.515 30.6366 233.345 30.8289 233.134 30.9637C232.922 31.0986 232.676 31.1706 232.425 31.1712H229.823C229.639 31.1712 229.457 31.1328 229.289 31.0583C229.12 30.9839 228.969 30.8751 228.846 30.7389C228.722 30.6027 228.628 30.4421 228.57 30.2675C228.512 30.0929 228.491 29.908 228.508 29.7248L229.534 19.0096C229.556 18.7803 229.637 18.5607 229.77 18.3722C229.902 18.1837 230.081 18.0327 230.289 17.9341C238.133 14.2722 246.087 14.2769 253.931 17.948C254.13 18.0415 254.303 18.1832 254.433 18.3602C254.564 18.5372 254.648 18.7439 254.679 18.9616L256.215 29.6629C256.242 29.8503 256.229 30.0413 256.175 30.2229C256.122 30.4045 256.03 30.5726 255.906 30.7156C255.782 30.8587 255.629 30.9734 255.457 31.052C255.285 31.1306 255.098 31.1713 254.908 31.1712H254.908Z" fill="#2F2E41"/>
<path d="M261.956 131.699C262.609 131.468 263.203 131.097 263.697 130.611C264.191 130.125 264.573 129.537 264.815 128.888C265.057 128.239 265.153 127.545 265.098 126.854C265.043 126.164 264.837 125.494 264.495 124.892L275.599 112.233L266.931 111.037L257.715 123.241C256.741 123.883 256.037 124.86 255.735 125.987C255.434 127.113 255.556 128.312 256.079 129.354C256.601 130.397 257.488 131.211 258.572 131.644C259.655 132.076 260.859 132.096 261.956 131.699V131.699Z" fill="#9F616A"/>
<path d="M275.347 243.884L267.603 243.884L263.918 214.012L275.349 214.013L275.347 243.884Z" fill="#9F616A"/>
<path d="M277.322 251.392L252.351 251.391V251.075C252.351 248.497 253.375 246.025 255.198 244.203C257.021 242.38 259.493 241.356 262.07 241.356H262.071L277.323 241.356L277.322 251.392Z" fill="#2F2E41"/>
<path d="M315.887 237.403L308.491 239.7L296.114 212.264L307.031 208.875L315.887 237.403Z" fill="#9F616A"/>
<path d="M320 243.987L296.152 251.392L296.058 251.09C295.294 248.628 295.539 245.964 296.739 243.682C297.939 241.401 299.996 239.69 302.458 238.925L302.459 238.925L317.025 234.403L320 243.987Z" fill="#2F2E41"/>
<path d="M269.417 106.164L257.948 119.3L266.927 120.108L269.417 106.164Z" fill="#E6E6E6"/>
<path d="M264.935 123.096C264.935 123.096 260.951 125.088 260.453 134.052C259.955 143.016 261.947 166.424 261.947 166.424C261.947 166.424 259.956 176.882 261.947 186.344C263.939 195.805 259.956 230.166 262.445 230.166C264.935 230.166 277.883 231.66 278.381 230.166C278.879 228.672 279.377 206.262 279.377 206.262C279.377 206.262 283.361 194.808 279.377 187.838C279.377 187.838 293.288 212.128 302.285 230.665C304.254 234.723 319.217 230.167 316.727 225.685C314.237 221.203 308.262 200.785 308.262 200.785C308.262 200.785 303.779 185.845 295.812 179.371L299.796 147.499C299.796 147.499 308.262 126.085 303.283 123.097C298.303 120.109 264.935 123.096 264.935 123.096Z" fill="#2F2E41"/>
<path d="M279.874 41.9212C287.025 41.9212 292.822 36.1243 292.822 28.9734C292.822 21.8225 287.025 16.0255 279.874 16.0255C272.723 16.0255 266.927 21.8225 266.927 28.9734C266.927 36.1243 272.723 41.9212 279.874 41.9212Z" fill="#A0616A"/>
<path d="M294.317 42.9173L278.22 52.3792C278.22 52.3792 272.057 55.8501 269.754 61.841C267.3 68.2259 268.727 77.2156 269.754 79.271C271.746 83.255 268.919 93.215 268.919 93.215L266.429 116.123C266.429 116.123 257.465 124.588 264.437 125.585C271.409 126.581 283.859 125.086 291.329 125.585C298.799 126.083 307.265 127.079 304.775 122.098C302.285 117.116 299.297 113.631 302.285 103.673C304.623 95.8796 304.522 66.7387 304.367 54.4322C304.346 52.7422 303.893 51.0857 303.051 49.6204C302.208 48.155 301.005 46.9294 299.556 46.0603L294.317 42.9173Z" fill="#E5E5E5"/>
<path opacity="0.1" d="M287.098 58.6045L288.592 88.9823L274.113 118.302L271.658 117.368L286.598 89.978L287.098 58.6045Z" fill="black"/>
<path opacity="0.1" d="M303.53 95.456V91.9691L286.6 119.858L303.53 95.456Z" fill="black"/>
<path d="M270.685 16.9787L268.546 16.123C268.546 16.123 273.023 11.1956 279.249 11.6239L277.497 9.69574C277.497 9.69574 281.778 7.98197 285.67 12.4806C287.716 14.8456 290.083 17.6257 291.56 20.7569H293.853L292.896 22.8636L296.245 24.9704L292.808 24.5935C293.133 26.4122 293.022 28.2823 292.483 30.0496L292.577 31.7148C292.577 31.7148 288.591 25.5472 288.591 24.6915V26.834C288.591 26.834 286.45 24.9059 286.45 23.6204L285.283 25.1203L284.699 22.7642L277.499 25.1203L278.665 23.1911L274.189 23.8339L275.94 21.4778C275.94 21.4778 270.881 24.2627 270.686 26.6196C270.492 28.9766 267.962 31.9754 267.962 31.9754L266.795 29.8328C266.795 29.8328 265.044 20.1924 270.685 16.9787Z" fill="#2F2E41"/>
<path d="M279.062 133.108C279.664 132.765 280.183 132.294 280.583 131.728C280.983 131.163 281.254 130.516 281.377 129.834C281.5 129.153 281.472 128.452 281.295 127.783C281.118 127.113 280.796 126.49 280.352 125.958L289.033 111.53L280.291 111.891L273.388 125.537C272.543 126.342 272.023 127.428 271.927 128.591C271.83 129.753 272.163 130.91 272.862 131.844C273.562 132.777 274.579 133.421 275.722 133.654C276.865 133.887 278.053 133.693 279.062 133.108V133.108Z" fill="#9F616A"/>
<path d="M298.8 49.392L302.535 48.6452C302.535 48.6452 313.74 56.8621 310.254 73.2959C306.768 89.7297 291.33 114.63 291.33 114.63C291.33 114.63 287.843 119.112 286.848 120.108C285.853 121.103 283.86 120.108 284.856 121.602C285.852 123.096 283.362 124.092 283.362 124.092C283.362 124.092 272.406 124.092 273.402 120.108C274.398 116.124 291.33 87.7356 291.33 87.7356L288.84 61.3418C288.84 61.3418 286.848 48.3959 298.8 49.392Z" fill="#E5E5E5"/>
</svg>
